<svg width="77" height="71" viewBox="0 0 77 71" fill="none" xmlns="http://www.w3.org/2000/svg">
<path d="M57 0H20C8.95431 0 0 8.9543 0 20V51C0 62.0457 8.9543 71 20 71H57C68.0457 71 77 62.0457 77 51V20C77 8.9543 68.0457 0 57 0Z" fill="url(#paint0_linear_5_21)"/>
<path d="M23.3194 25.6269C24.8217 24.1582 26.8152 23.3 29.1568 23.3C33.7183 23.3 36.7421 26.3995 37.3188 31.0434C37.5067 32.5521 37.5044 34.6779 37.5028 37.1411V47.1343H31.2319V40.3112C31.2319 40.3112 31.2189 34.471 31.1811 33.3796C31.0125 28.6258 27.9887 25.6384 23.3186 25.6355C21.9103 27.0208 21.1549 28.715 21.0441 31.3052C21.0287 31.6661 21.0325 32.9459 21.0371 34.6351C21.0371 35.5096 21.0425 36.4933 21.0441 37.5148C21.0487 41.9626 21.0441 47.1357 21.0441 47.1357H14.7709V36.6339C14.7709 36.2772 14.7632 35.9112 14.7562 35.5467C14.7424 34.8141 14.7278 34.0758 14.7709 33.3439C14.8417 32.1255 15.0681 30.9271 15.6795 29.8136C17.0778 27.2634 19.9445 25.6212 23.0006 25.6212C23.1069 25.6212 23.2139 25.6212 23.3194 25.6269Z" fill="white"/>
<path d="M62.2291 37.6561C62.2722 36.9249 62.2576 36.1859 62.2437 35.4533C62.2368 35.0888 62.2291 34.7264 62.2291 34.3661V23.8643H55.9567C55.9567 23.8643 55.9513 29.0374 55.9567 33.4852C55.9567 34.5067 55.9567 35.4904 55.9628 36.3649C55.9674 38.0527 55.9713 39.3339 55.9567 39.6948C55.845 42.285 55.0896 43.9792 53.6813 45.3645C49.0112 45.3645 45.9875 42.3749 45.8196 37.6211C45.7811 36.5297 45.7649 33.8211 45.7649 30.6838V23.86L39.4963 23.8657V33.8589C39.4963 36.3221 39.4925 38.4479 39.6804 39.9566C40.2579 44.6005 43.2817 47.7 47.8424 47.7C50.184 47.7 52.1767 46.844 53.6798 45.3731C53.7853 45.3766 53.8915 45.3788 53.9985 45.3788C57.0547 45.3788 59.9206 43.7381 61.3197 41.1864C61.9311 40.0729 62.1575 38.8745 62.2283 37.6554L62.2291 37.6561Z" fill="white"/>
<defs>
<linearGradient id="paint0_linear_5_21" x1="74" y1="69" x2="10" y2="14.5" gradientUnits="userSpaceOnUse">
<stop stop-color="#7451BC"/>
<stop offset="0.510417" stop-color="#4E3483"/>
<stop offset="1" stop-color="#29194B"/>
</linearGradient>
</defs>
</svg>
